<?xml version="1.0" standalone="no"?>
<!DOCTYPE svg PUBLIC "-//W3C//DTD SVG 20010904//EN"
 "http://www.w3.org/TR/2001/REC-SVG-20010904/DTD/svg10.dtd">
<svg version="1.0" xmlns="http://www.w3.org/2000/svg"
 width="700.000000pt" height="700.000000pt" viewBox="0 0 700.000000 700.000000"
 preserveAspectRatio="xMidYMid meet">
<metadata>
Created by potrace 1.11, written by Peter Selinger 2001-2013
</metadata>
<g transform="translate(0.000000,700.000000) scale(0.100000,-0.100000)"
fill="#000000" stroke="none">
<path d="M3468 6339 c-49 -7 -102 -34 -130 -66 -15 -17 -65 -105 -167 -296
-23 -43 -63 -117 -90 -165 -26 -48 -72 -132 -101 -187 -29 -55 -60 -113 -70
-130 -10 -16 -35 -64 -57 -105 -35 -66 -313 -580 -395 -730 -17 -30 -49 -89
-71 -130 -22 -41 -55 -101 -74 -133 -18 -32 -33 -60 -33 -62 0 -3 -82 -154
-345 -640 -18 -33 -89 -166 -159 -295 -70 -129 -133 -246 -142 -260 -8 -14
-31 -56 -50 -95 -20 -38 -43 -78 -52 -87 -8 -10 -12 -18 -7 -18 4 0 3 -6 -2
-12 -12 -15 -23 -36 -301 -548 -186 -344 -234 -433 -262 -485 -18 -33 -47 -87
-65 -120 -18 -33 -48 -89 -68 -125 -19 -36 -75 -139 -124 -230 -50 -91 -114
-210 -143 -265 -29 -55 -59 -107 -66 -115 -7 -8 -13 -17 -13 -20 0 -3 -9 -25
-20 -50 -26 -56 -26 -132 -2 -186 26 -58 93 -112 150 -120 25 -4 1337 -7 2916
-7 l2870 0 41 21 c85 44 130 123 122 217 -4 42 -21 82 -88 206 -46 85 -97 179
-113 209 -37 68 -85 158 -124 230 -17 30 -133 244 -258 475 -125 231 -240 443
-255 470 -15 28 -89 165 -165 305 -191 354 -200 372 -265 490 -31 58 -73 134
-92 170 -36 67 -136 251 -203 375 -21 39 -52 95 -68 125 -16 30 -75 138 -130
240 -55 102 -143 264 -195 360 -52 96 -110 204 -130 240 -19 36 -48 89 -64
118 -15 28 -42 78 -59 110 -17 31 -47 86 -67 122 -19 36 -107 198 -195 360
-88 162 -176 324 -195 360 -19 36 -47 88 -62 115 -15 28 -49 91 -76 140 -27
50 -56 103 -65 120 -39 71 -136 117 -221 104z"/>
</g>
</svg>
